<svg xmlns="http://www.w3.org/2000/svg" xmlns:xlink="http://www.w3.org/1999/xlink" version="1.1" class="marks" width="681" height="397" viewBox="0 0 681 397"><rect width="681" height="397" fill="#ffffff"/><g fill="none" stroke-miterlimit="10" transform="translate(51,36)"><g class="mark-group role-frame root" role="graphics-object" aria-roledescription="group mark container"><g transform="translate(0,0)"><path class="background" aria-hidden="true" d="M0,0h600v300h-600Z"/><g><g class="mark-group role-axis" aria-hidden="true"><g transform="translate(0.5,0.5)"><path class="background" aria-hidden="true" d="M0,0h0v0h0Z" pointer-events="none"/><g><g class="mark-rule role-axis-grid" pointer-events="none"><line transform="translate(0,300)" x2="600" y2="0" stroke="#e0e0e0" stroke-width="1" opacity="1"/><line transform="translate(0,250)" x2="600" y2="0" stroke="#e0e0e0" stroke-width="1" opacity="1"/><line transform="translate(0,200)" x2="600" y2="0" stroke="#e0e0e0" stroke-width="1" opacity="1"/><line transform="translate(0,150)" x2="600" y2="0" stroke="#e0e0e0" stroke-width="1" opacity="1"/><line transform="translate(0,100)" x2="600" y2="0" stroke="#e0e0e0" stroke-width="1" opacity="1"/><line transform="translate(0,50)" x2="600" y2="0" stroke="#e0e0e0" stroke-width="1" opacity="1"/><line transform="translate(0,0)" x2="600" y2="0" stroke="#e0e0e0" stroke-width="1" opacity="1"/></g></g><path class="foreground" aria-hidden="true" d="" pointer-events="none" display="none"/></g></g><g class="mark-group role-axis" role="graphics-symbol" aria-roledescription="axis" aria-label="X-axis titled 'x' for a discrete scale with 2 values: Mon, Tue"><g transform="translate(0.5,300.5)"><path class="background" aria-hidden="true" d="M0,0h0v0h0Z" pointer-events="none"/><g><g class="mark-rule role-axis-tick" pointer-events="none"><line transform="translate(150,0)" x2="0" y2="5" stroke="#888" stroke-width="1" opacity="1"/><line transform="translate(450,0)" x2="0" y2="5" stroke="#888" stroke-width="1" opacity="1"/></g><g class="mark-text role-axis-label" pointer-events="none"><text text-anchor="end" transform="translate(150,7) rotate(315) translate(0,9)" font-family="Helvetica, Arial, sans-serif" font-size="11px" fill="#333333" opacity="1">Mon</text><text text-anchor="end" transform="translate(450,7) rotate(315) translate(0,9)" font-family="Helvetica, Arial, sans-serif" font-size="11px" fill="#333333" opacity="1">Tue</text></g><g class="mark-rule role-axis-domain" pointer-events="none"><line transform="translate(0,0)" x2="600" y2="0" stroke="#e0e0e0" stroke-width="1" opacity="1"/></g><g class="mark-text role-axis-title" pointer-events="none"><text text-anchor="middle" transform="translate(300,47.16295090390224)" font-family="Helvetica, Arial, sans-serif" font-size="13px" font-weight="bold" fill="#333333" opacity="1">x</text></g></g><path class="foreground" aria-hidden="true" d="" pointer-events="none" display="none"/></g></g><g class="mark-group role-axis" role="graphics-symbol" aria-roledescription="axis" aria-label="Y-axis titled 'y' for a linear scale with values from 0 to 60"><g transform="translate(0.5,0.5)"><path class="background" aria-hidden="true" d="M0,0h0v0h0Z" pointer-events="none"/><g><g class="mark-rule role-axis-tick" pointer-events="none"><line transform="translate(0,300)" x2="-5" y2="0" stroke="#888" stroke-width="1" opacity="1"/><line transform="translate(0,250)" x2="-5" y2="0" stroke="#888" stroke-width="1" opacity="1"/><line transform="translate(0,200)" x2="-5" y2="0" stroke="#888" stroke-width="1" opacity="1"/><line transform="translate(0,150)" x2="-5" y2="0" stroke="#888" stroke-width="1" opacity="1"/><line transform="translate(0,100)" x2="-5" y2="0" stroke="#888" stroke-width="1" opacity="1"/><line transform="translate(0,50)" x2="-5" y2="0" stroke="#888" stroke-width="1" opacity="1"/><line transform="translate(0,0)" x2="-5" y2="0" stroke="#888" stroke-width="1" opacity="1"/></g><g class="mark-text role-axis-label" pointer-events="none"><text text-anchor="end" transform="translate(-7,303)" font-family="Helvetica, Arial, sans-serif" font-size="11px" fill="#333333" opacity="1">0</text><text text-anchor="end" transform="translate(-7,253)" font-family="Helvetica, Arial, sans-serif" font-size="11px" fill="#333333" opacity="1">10</text><text text-anchor="end" transform="translate(-7,203.00000000000003)" font-family="Helvetica, Arial, sans-serif" font-size="11px" fill="#333333" opacity="1">20</text><text text-anchor="end" transform="translate(-7,153)" font-family="Helvetica, Arial, sans-serif" font-size="11px" fill="#333333" opacity="1">30</text><text text-anchor="end" transform="translate(-7,103.00000000000001)" font-family="Helvetica, Arial, sans-serif" font-size="11px" fill="#333333" opacity="1">40</text><text text-anchor="end" transform="translate(-7,52.999999999999986)" font-family="Helvetica, Arial, sans-serif" font-size="11px" fill="#333333" opacity="1">50</text><text text-anchor="end" transform="translate(-7,3)" font-family="Helvetica, Arial, sans-serif" font-size="11px" fill="#333333" opacity="1">60</text></g><g class="mark-rule role-axis-domain" pointer-events="none"><line transform="translate(0,300)" x2="0" y2="-300" stroke="#e0e0e0" stroke-width="1" opacity="1"/></g><g class="mark-text role-axis-title" pointer-events="none"><text text-anchor="middle" transform="translate(-28,150) rotate(-90) translate(0,-3)" font-family="Helvetica, Arial, sans-serif" font-size="13px" font-weight="bold" fill="#333333" opacity="1">y</text></g></g><path class="foreground" aria-hidden="true" d="" pointer-events="none" display="none"/></g></g><g class="mark-line role-mark layer_0_layer_0_marks" role="graphics-object" aria-roledescription="line mark container"><path aria-label="x: Mon; y: 42" role="graphics-symbol" aria-roledescription="line mark" d="M150,90L450,10" stroke="#e63946" stroke-width="2"/></g><g class="mark-symbol role-mark layer_0_layer_1_marks" role="graphics-object" aria-roledescription="symbol mark container"><path aria-label="x: Mon; y: 42" role="graphics-symbol" aria-roledescription="point" transform="translate(150,90.00000000000001)" d="M3.873,0A3.873,3.873,0,1,1,-3.873,0A3.873,3.873,0,1,1,3.873,0" fill="#4c78a8" stroke-width="2" opacity="1"/><path aria-label="x: Tue; y: 58" role="graphics-symbol" aria-roledescription="point" transform="translate(450,9.999999999999998)" d="M3.873,0A3.873,3.873,0,1,1,-3.873,0A3.873,3.873,0,1,1,3.873,0" fill="#4c78a8" stroke-width="2" opacity="1"/></g><g class="mark-group role-title"><g transform="translate(-41,-26)"><path class="background" aria-hidden="true" d="M0,0h0v0h0Z" pointer-events="none"/><g><g class="mark-text role-title-text" role="graphics-symbol" aria-roledescription="title" aria-label="Title text 'Test Chart'" pointer-events="none"><text text-anchor="start" transform="translate(0,13)" font-family="Helvetica, Arial, sans-serif" font-size="16px" font-weight="bold" fill="#333333" opacity="1">Test Chart</text></g></g><path class="foreground" aria-hidden="true" d="" pointer-events="none" display="none"/></g></g></g><path class="foreground" aria-hidden="true" d="" display="none"/></g></g></g></svg>